<svg width="30" height="30" viewBox="0 0 30 30" fill="none" xmlns="http://www.w3.org/2000/svg">
<circle cx="15" cy="15" r="14.5" stroke="white"/>
<path d="M12.75 22.5V14.25V7.5C12.75 7.5 20 8.24999 20 12.5C20 16.75 12.75 17.5 12.75 17.5M15.5 19C13.75 19.75 12 19.75 10 19.75" stroke="white" stroke-linecap="round" stroke-linejoin="round"/>
<path d="M27.5 2.25001C27.5 4.5 26.1904 10 25.5 10C24.8096 10 24.25 7 24.25 4.5C24.25 0 25.3096 3.07542e-08 26 3.07542e-08C26.5 -8.12763e-06 27.5 0 27.5 2.25001Z" fill="white"/>
<path d="M26.5 11.75C26.5 12.4404 25.9404 13 25.25 13C24.5596 13 24 12.4404 24 11.75C24 11.0596 24.5596 10.75 25.25 10.75C25.9404 10.75 26.5 11.0596 26.5 11.75Z" fill="white"/>
</svg>
