<svg xmlns="http://www.w3.org/2000/svg" width="183" height="70" viewBox="0 0 183 70" fill="none">
    <g clip-path="url(#clip0)">
<!--        <path d="M101.09 21.03H96.72L90.8 32.22V21.03H86.89V48.45H90.8V40.47L92.65 36.96L97.05 48.45H101.21L95.04 32.43L101.09 21.03Z" fill="white"/>-->
<!--        <path d="M113.58 41.91C113.58 43.6 112.22 44.98 110.54 44.98C108.85 44.98 107.47 43.6 107.47 41.91V21.03H103.56V41.72C103.56 45.57 106.69 48.69 110.53 48.69C114.36 48.69 117.47 45.56 117.47 41.72V21.03H113.56V41.91H113.58Z" fill="white"/>-->
<!--        <path d="M127.23 21.03H120.26V48.46H127.23C131.06 48.46 134.17 45.35 134.17 41.52V27.97C134.17 24.14 131.05 21.03 127.23 21.03ZM130.26 41.71C130.26 43.38 128.9 44.75 127.22 44.75H124.15V24.73H127.22C128.89 24.73 130.26 26.09 130.26 27.77V41.71Z" fill="white"/>-->
<!--        <path d="M145.07 21.03H141.31L135.41 48.46H139.37L140.24 44.19H146.15L147.05 48.46H151.04L145.1 21.14L145.07 21.03ZM145.36 40.51H141.03L143.18 30.1L145.36 40.51Z" fill="white"/>-->
<!--        <path d="M159.09 20.79C155.24 20.79 152.12 23.92 152.12 27.76V41.71C152.12 45.56 155.25 48.68 159.09 48.68C162.92 48.68 166.03 45.55 166.03 41.71V37.07H158.72V40.74H162.12V41.91C162.12 43.6 160.76 44.98 159.08 44.98C157.39 44.98 156.01 43.6 156.01 41.91V27.57C156.01 25.88 157.39 24.5 159.08 24.5C160.75 24.5 162.12 25.88 162.12 27.57V29.31H166.03V27.77C166.03 23.92 162.91 20.79 159.09 20.79Z" fill="white"/>-->
<!--        <path d="M175.77 20.79C171.92 20.79 168.8 23.92 168.8 27.76V41.71C168.8 45.56 171.93 48.68 175.77 48.68C179.6 48.68 182.71 45.55 182.71 41.71V27.77C182.71 23.92 179.59 20.79 175.77 20.79ZM172.7 27.57C172.7 25.88 174.08 24.5 175.77 24.5C177.44 24.5 178.81 25.88 178.81 27.57V41.92C178.81 43.61 177.45 44.99 175.77 44.99C174.08 44.99 172.7 43.61 172.7 41.92V27.57Z" fill="white"/>-->
        <path fill-rule="evenodd" clip-rule="evenodd" d="M26.83 0.919986C45.5 -3.45001 64.2 8.15999 68.56 26.83C72.93 45.5 61.32 64.2 42.66 68.56C23.99 72.93 5.29002 61.32 0.920017 42.65C-3.44998 23.98 8.16002 5.28999 26.83 0.919986Z" fill="#EE3942"/>
        <path fill-rule="evenodd" clip-rule="evenodd" d="M36.97 29.2C37.71 29.84 38.81 29.77 39.45 29.03C40.09 28.3 40.01 27.19 39.28 26.55C38.55 25.91 37.44 25.99 36.8 26.72C36.17 27.45 36.24 28.56 36.97 29.2Z" fill="white"/>
        <path fill-rule="evenodd" clip-rule="evenodd" d="M29.77 47.36C29.14 48.75 28.28 50.05 26.61 51.73C26.22 52.12 27.11 52.84 27.51 53.38C27.58 54.97 27.67 58.72 28.3 59.79L29.77 59.76C28.81 57.64 29.24 55.33 29.28 52.88C29.22 52.48 28.98 52.11 28.78 51.71C29.44 50.23 30.14 49.32 30.48 47.51L29.77 47.36Z" fill="white"/>
        <path fill-rule="evenodd" clip-rule="evenodd" d="M41.23 48.76L39.49 48.62C39.64 50.3 40.37 51.32 41.13 52.28C40.78 54.26 40.26 56.5 40.37 59.45H41.88C42.14 56.84 42.73 53.69 43.5 51.9C42.53 51.05 41.57 49.56 41.23 48.76Z" fill="white"/>
        <path d="M40.45 38.06V37.37C40.45 37.25 40.35 37.15 40.22 37.15C40.09 37.15 39.99 37.25 39.99 37.37V38.06C39.99 38.11 40.02 38.16 40.05 38.2C40.17 38.21 40.28 38.21 40.38 38.22C40.42 38.18 40.45 38.12 40.45 38.06Z" fill="white"/>
        <path d="M37.96 37.54V36.85C37.96 36.73 37.86 36.63 37.73 36.63C37.6 36.63 37.5 36.73 37.5 36.85V37.53C37.57 37.61 37.67 37.68 37.79 37.74C37.89 37.71 37.96 37.64 37.96 37.54Z" fill="white"/>
        <path fill-rule="evenodd" clip-rule="evenodd" d="M41.27 34.47C41.12 34.45 41.12 34.44 41.1 34.44C40.95 34.96 40.47 35.33 39.87 35.35L38.19 35.4C37.97 35.41 37.76 35.36 37.56 35.28C37.53 35.43 37.51 35.59 37.49 35.76C37.67 36.15 38.35 36.49 39.36 36.63C40.86 36.84 42.47 36.49 43 35.89C43.52 35.29 42.77 34.67 41.27 34.47Z" fill="white"/>
        <path fill-rule="evenodd" clip-rule="evenodd" d="M32.29 36.33C32.41 36.36 32.53 36.39 32.64 36.41L32.79 36L32.31 35.97C32.3 36.1 32.3 36.22 32.29 36.33Z" fill="white"/>
        <path fill-rule="evenodd" clip-rule="evenodd" d="M24.97 20.07C26.52 20.55 29 19.08 31.15 19.24C32.89 19.37 35.81 20.08 37.43 20.94C37.44 20.95 37.45 20.95 37.46 20.96L35.12 27.46C35.15 28.03 34.97 28.6 34.57 29.06C34.56 29.07 34.54 29.08 34.53 29.1L33.02 33.28L33.36 33.3C33.44 33.31 33.52 33.32 33.6 33.34C33.63 33.24 33.65 33.13 33.68 33.03C33.93 32.14 34.27 31.41 34.63 30.92L35.85 27.54C35.89 27.24 36 26.95 36.16 26.69L42.11 10.17C42.18 9.98997 42.08 9.77997 41.9 9.71997C41.78 9.67997 41.66 9.69997 41.57 9.76997C41.57 9.74997 41.57 9.73997 41.58 9.71997C40.86 10.53 35.99 9.94997 31.7 9.85997C28.52 9.78997 25.09 9.54997 22.78 10.68C21.3 12.16 18.7 16.69 17.39 19.13C20.42 18.62 22.96 19.45 24.97 20.07Z" fill="white"/>
        <path fill-rule="evenodd" clip-rule="evenodd" d="M56.61 33.82C53.7 32.41 53.52 30.61 51.14 28.72C50.87 28.8 50.71 28.78 50.53 28.71C50.98 28.37 51.61 27.9 52.59 28.89C52.31 27.67 50.27 27.08 48.87 27.98C48.43 27.53 48.45 27.03 48.39 26.49C47.86 27.17 47.7 27.96 47.68 28.79C46.92 28.52 46.11 28.69 45.34 29.3C44.31 30.12 44.49 30.3 43.19 30.76C43.37 30.93 43.98 30.88 44.29 30.68C43.78 31.45 42.66 31.77 41.82 31.5C41.98 32.02 42.66 32.16 43.28 32.1C42.78 32.5 42.29 32.98 41.01 32.72C41.42 33.11 42 33.42 42.69 33.44C42.47 33.69 42.26 33.91 42.06 34.1C43.58 34.57 43.77 35.35 43.51 36.07V37.3C43.51 37.31 43.64 37.35 43.63 37.56C43.61 37.92 43.18 38.23 42.34 38.5C42.11 38.55 41.82 38.58 41.48 38.6C41.68 38.84 41.78 39.12 41.78 39.42V39.45V39.48L41.29 44.66C41.28 45.08 41.15 45.45 40.93 45.72C40.74 45.94 40.4 46.21 39.83 46.21C39.81 46.21 39.79 46.21 39.77 46.21C39.26 46.2 38.39 45.94 38.33 44.42V44.4V44.38L38.52 40.51C37.98 40.44 37.11 40.33 36.39 40.2C36.26 40.18 36.14 40.16 36.01 40.13V44.63V44.64C35.99 45.49 35.45 46.05 34.59 46.08H34.53L34.47 46.07C33.64 45.93 33.25 45.46 33.15 44.48V44.46L33 40.04C32.72 40.01 32.45 39.99 32.19 39.96C31.28 39.88 30.49 39.81 29.88 39.66C29.85 39.66 29.82 39.65 29.8 39.65C29.14 39.52 28.65 39.19 28.34 38.65C28.24 38.47 28.17 38.28 28.11 38.11C27.86 38.13 27.65 38.16 27.52 38.21C27.04 38.37 26.6 38.59 26.21 38.86C24.51 37.62 22.15 37.1 20.28 38.09C17.96 39.31 18.66 41.49 15.94 41.9C17.41 42.52 19.27 41.81 20.03 40.24C19.68 42.03 15.73 44.28 14.3 41.02C13.72 41.67 14.2 42.87 14.94 43.28C13.76 43.58 13.3 42.92 12.87 42.19C12.72 45.65 15.18 47.58 18.81 45.78C18.49 46.52 17.19 47.31 15.08 47.17C19.68 48.51 22.29 44.38 22.31 42.59C22.47 43.28 22.33 43.92 21.92 44.76C24.87 43.24 22.39 39.89 25 39.67C25.11 39.66 25.21 39.66 25.31 39.66C24.67 40.42 24.28 41.41 24.23 42.63C24.19 43.55 24.5 44.35 25.05 44.99C24.34 47.06 23.96 49.22 22.91 50.8C22.71 51.91 23.18 53.12 23.4 54.37C23.83 56.92 23.44 58.21 23.36 59.74L25.15 59.73C25.44 58 25.49 55.3 25.29 51.84C26.89 50.53 28.35 48.61 29.22 46.61L29.19 46.59C34.28 46.9 35.73 47.91 41.79 48.1C42.29 49.44 43.27 50.85 44.36 51.69C45.1 53.55 44.9 56.74 45.07 59.37H46.68C46.5 56.3 46.68 54 46.8 51.57C46.24 49.57 45.81 47.9 45.82 46.46C46.3 45.9 46.65 45.2 46.8 44.36L46.82 44.39C47.16 40.28 47.51 35.66 48.84 34.21C50.55 34.03 52.66 35.68 55.68 36.07C56.02 35.83 56.09 35.32 56.06 34.7C56.34 34.64 56.57 34.48 56.61 33.82Z" fill="white"/>
        <path fill-rule="evenodd" clip-rule="evenodd" d="M40.84 38.78C40.41 38.79 40.11 38.79 39.27 38.7C37.99 38.56 36.85 38.14 36.8 37.27C36.8 37.27 36.87 35.76 37.06 34.9C37.05 34.88 36.86 34.53 36.86 34.51C36.86 34.51 36.48 33.11 36.65 32.85C36.7 32.77 36.78 32.71 36.87 32.67L37.24 34.09C37.3 34.3 37.41 34.48 37.56 34.61C37.71 34.76 37.92 34.85 38.16 34.84L39.84 34.79C40.26 34.78 40.59 34.49 40.59 34.1C40.59 33.61 40.23 33.43 39.81 33.45L38.8 33.48L38.32 31.67C38.3 31.59 38.27 31.52 38.24 31.46C38.17 30.91 37.78 30.34 37.09 30.19C36.29 30.02 35.8 30.34 35.15 31.12C34.75 31.6 34.37 32.5 34.11 33.56C34.19 33.62 34.27 33.68 34.34 33.75C34.61 34.02 34.75 34.38 34.73 34.75V34.76V34.78C34.7 35.14 34.53 35.47 34.24 35.7C34.11 35.81 33.96 35.89 33.8 35.94C33.8 36.02 33.79 36.1 33.79 36.18C33.79 36.37 33.8 36.55 33.82 36.73C34.18 36.83 34.52 36.93 34.84 37.04C35.66 37.31 35.88 37.83 35.93 38.15C35.98 38.32 36.01 38.5 36.01 38.69V39.52C36.16 39.56 36.31 39.6 36.48 39.62C37.57 39.82 39.03 39.98 39.1 39.99L38.88 44.38C38.91 45.2 39.19 45.62 39.78 45.64C40.4 45.66 40.71 45.23 40.73 44.62L41.22 39.42C41.22 39 40.89 38.78 40.84 38.78Z" fill="white"/>
        <path fill-rule="evenodd" clip-rule="evenodd" d="M35.4 38.27C35.37 37.98 35.15 37.71 34.67 37.56C33.64 37.22 32.59 36.96 31.71 36.77C31.72 36.51 31.74 36.25 31.76 35.93L30.81 35.86C30.07 35.78 29.69 35.29 29.77 34.62C29.8 34.34 30.01 34.12 30.26 33.98C30.13 34.11 30.05 34.27 30.04 34.45C30 34.9 30.39 35.29 30.9 35.32L33.2 35.46C33.71 35.5 34.15 35.17 34.19 34.72C34.22 34.27 33.84 33.89 33.33 33.85L32.05 33.77L32.06 33.6C32.21 32.92 32.44 32.28 32.69 31.9C33.1 31.28 32.82 30.03 31.72 29.79C30.92 29.63 30.43 29.94 29.79 30.71C28.95 31.72 28.17 35.11 28.53 37.32C28.62 37.89 28.74 38.87 29.92 39.1C29.95 39.11 29.99 39.11 30.02 39.12C30.84 39.31 32.06 39.37 33.39 39.51C33.45 39.52 33.51 39.53 33.56 39.54L33.75 44.38C33.83 45.19 34.1 45.39 34.61 45.48C35.15 45.46 35.48 45.16 35.49 44.58V38.68C35.47 38.54 35.44 38.4 35.4 38.27Z" fill="white"/>
        <path fill-rule="evenodd" clip-rule="evenodd" d="M31.73 28.85C32.44 29.47 33.53 29.4 34.15 28.69C34.77 27.98 34.69 26.89 33.98 26.27C33.27 25.65 32.18 25.72 31.56 26.43C30.94 27.15 31.02 28.23 31.73 28.85Z" fill="white"/>
        <path d="M41.72 37.28C41.72 37.16 41.62 37.06 41.49 37.06C41.36 37.06 41.26 37.16 41.26 37.28V37.97C41.26 38.09 41.36 38.19 41.49 38.19C41.62 38.19 41.72 38.09 41.72 37.97V37.28Z" fill="white"/>
        <path d="M42.86 36.92C42.86 36.8 42.76 36.7 42.63 36.7C42.5 36.7 42.4 36.8 42.4 36.92V37.61C42.4 37.73 42.5 37.83 42.63 37.83C42.76 37.83 42.86 37.73 42.86 37.61V36.92Z" fill="white"/>
        <path d="M38.94 37.02C38.81 37.02 38.71 37.12 38.71 37.24V37.93C38.71 37.98 38.74 38.01 38.76 38.05C38.86 38.07 38.96 38.09 39.07 38.1C39.12 38.06 39.16 38 39.16 37.93V37.24C39.17 37.12 39.07 37.02 38.94 37.02Z" fill="white"/>
    </g>
    <defs>
        <clipPath id="clip0">
            <rect width="182.71" height="69.48" fill="white"/>
        </clipPath>
    </defs>
</svg>