<svg width="40" height="40" viewBox="0 0 40 40" fill="none" xmlns="http://www.w3.org/2000/svg">
<circle cx="20" cy="20" r="20" fill="#202020"/>
<path d="M16 19.1429C16 19.1429 19 21.7143 23.5 21.7143C28 21.7143 31 19.1429 31 19.1429M31 19.1429L30.25 23M31 19.1429L28 17" stroke="white" stroke-linecap="round" stroke-linejoin="round"/>
<path d="M25 19.2667L24.909 18.0398C24.6606 14.6937 24.5365 13.0207 23.7105 11.875C23.1664 11.1204 22.4226 10.5325 21.5627 10.1775C20.2573 9.63859 18.6008 9.90432 15.2879 10.4358V10.4358C13.5104 10.7209 12.6216 10.8635 11.7367 11.4365C11.2432 11.7561 10.5863 12.4111 10.2653 12.9038C9.6898 13.787 9.57624 14.4824 9.34912 15.8731C9.14673 17.1124 9 18.5209 9 20C9 21.4287 9.1369 22.7916 9.32863 23.9997C9.56854 25.5114 9.6885 26.2672 10.3299 27.1996C10.6184 27.619 11.1897 28.1913 11.6086 28.4805C12.5399 29.1234 13.4986 29.2772 15.416 29.5848L17.6781 29.9477C18.9737 30.1555 19.6215 30.2594 20.1705 30.2264C22.1866 30.1051 23.9317 28.7829 24.5939 26.8748C24.7743 26.3552 24.8495 25.7035 25 24.4V24.4" stroke="white" stroke-linecap="round" stroke-linejoin="round"/>
</svg>
